# This file uses centimeters as units for non-parametric coordinates.

mtllib SM_Med_Fridge_Open.mtl
g default
v -35.646660 55.631454 32.398781
v 35.513844 55.631454 32.398781
v -35.646660 56.763554 32.398781
v 35.513844 56.763554 32.398781
v -35.646660 56.763554 -38.761723
v 35.513844 56.763554 -38.761723
v -35.646660 55.631454 -38.761723
v 35.513844 55.631454 -38.761723
v -35.646660 28.398811 32.398781
v 35.513844 28.398811 32.398781
v -35.646660 29.530910 32.398781
v 35.513844 29.530910 32.398781
v -35.646660 29.530910 -38.761723
v 35.513844 29.530910 -38.761723
v -35.646660 28.398811 -38.761723
v 35.513844 28.398811 -38.761723
v 32.886490 0.000000 30.195065
v 29.965893 0.000000 28.985313
v 27.045296 0.000000 30.195065
v 25.835545 0.000000 33.115662
v 27.045296 0.000000 36.036266
v 29.965893 0.000000 37.246010
v 32.886490 0.000000 36.036266
v 34.096241 0.000000 33.115662
v 32.886490 3.324160 30.195065
v 29.965893 3.324160 28.985313
v 27.045296 3.324160 30.195065
v 25.835545 3.324160 33.115662
v 27.045296 3.324160 36.036266
v 29.965893 3.324160 37.246010
v 32.886490 3.324160 36.036266
v 34.096241 3.324160 33.115662
v -27.393129 0.000000 -39.958637
v -30.313728 0.000000 -41.168388
v -33.234325 0.000000 -39.958637
v -34.444077 0.000000 -37.038040
v -33.234325 0.000000 -34.117435
v -30.313728 0.000000 -32.907692
v -27.393129 0.000000 -34.117435
v -26.183380 0.000000 -37.038040
v -27.393129 3.324160 -39.958637
v -30.313728 3.324160 -41.168388
v -33.234325 3.324160 -39.958637
v -34.444077 3.324160 -37.038040
v -33.234325 3.324160 -34.117435
v -30.313728 3.324160 -32.907692
v -27.393129 3.324160 -34.117435
v -26.183380 3.324160 -37.038040
v -27.393129 0.000000 30.195065
v -30.313728 0.000000 28.985313
v -33.234325 0.000000 30.195065
v -34.444077 0.000000 33.115662
v -33.234325 0.000000 36.036266
v -30.313728 0.000000 37.246010
v -27.393129 0.000000 36.036266
v -26.183380 0.000000 33.115662
v -27.393129 3.324160 30.195065
v -30.313728 3.324160 28.985313
v -33.234325 3.324160 30.195065
v -34.444077 3.324160 33.115662
v -33.234325 3.324160 36.036266
v -30.313728 3.324160 37.246010
v -27.393129 3.324160 36.036266
v -26.183380 3.324160 33.115662
v 32.935612 0.000000 -39.958637
v 30.015015 0.000000 -41.168388
v 27.094416 0.000000 -39.958637
v 25.884666 0.000000 -37.038040
v 27.094416 0.000000 -34.117435
v 30.015015 0.000000 -32.907692
v 32.935612 0.000000 -34.117435
v 34.145363 0.000000 -37.038040
v 32.935612 3.324160 -39.958637
v 30.015015 3.324160 -41.168388
v 27.094416 3.324160 -39.958637
v 25.884666 3.324160 -37.038040
v 27.094416 3.324160 -34.117435
v 30.015015 3.324160 -32.907692
v 32.935612 3.324160 -34.117435
v 34.145363 3.324160 -37.038040
v 36.755142 76.714668 39.808952
v 35.579872 76.714668 39.322144
v 34.404602 76.714668 39.808952
v 33.917793 76.714668 40.984222
v 34.404602 76.714668 42.159489
v 35.579872 76.714668 42.646305
v 36.755142 76.714668 42.159489
v 37.241951 76.714668 40.984222
v 36.755142 80.038826 39.808952
v 35.579872 80.038826 39.322144
v 34.404602 80.038826 39.808952
v 33.917793 80.038826 40.984222
v 34.404602 80.038826 42.159489
v 35.579872 80.038826 42.646305
v 36.755142 80.038826 42.159489
v 37.241951 80.038826 40.984222
v -38.214714 2.610709 38.343407
v 38.081894 2.610709 38.343407
v -38.214714 85.660454 38.343407
v 38.081894 85.660454 38.343407
v -38.214714 85.660454 -44.706345
v 38.081894 85.660454 -44.706345
v -38.214714 2.610709 -44.706345
v 38.081894 2.610709 -44.706345
v -38.214714 79.496353 38.343407
v 38.081894 79.496353 38.343407
v 38.081894 79.496338 -44.706345
v -38.214714 79.496338 -44.706345
v -38.214714 79.496353 43.975201
v 38.081894 79.496353 43.975201
v 38.081894 85.660454 43.975201
v -38.214714 85.660454 43.975201
v -38.214714 8.308721 38.343407
v 38.081894 8.308721 38.343407
v 38.081894 8.308702 -44.706345
v -38.214714 8.308702 -44.706345
v -38.214714 2.610709 43.975201
v 38.081894 2.610709 43.975201
v 38.081894 8.308721 43.975201
v -38.214714 8.308721 43.975201
v -35.007576 11.301102 38.343407
v 34.874756 11.301102 38.343407
v 34.874756 76.503967 38.343407
v -35.007576 76.503967 38.343407
v -35.007576 11.301102 -37.420921
v 34.874756 11.301102 -37.420921
v 34.874756 76.503967 -37.420921
v -35.007576 76.503967 -37.420921
v 13.518310 80.552895 44.603100
v 28.545271 80.552895 44.603100
v 13.518310 84.918274 44.603100
v 28.545271 84.918274 44.603100
v 13.518310 84.918274 41.343163
v 28.545271 84.918274 41.343163
v 13.518310 80.552895 41.343163
v 28.545271 80.552895 41.343163
v 54.422836 8.656240 112.778503
v 37.805714 8.656240 38.313450
v 54.422836 77.890015 112.778503
v 37.805714 77.890015 38.313450
v 48.926247 77.890015 114.005104
v 32.309116 77.890015 39.540035
v 48.926247 8.656240 114.005104
v 32.309116 8.656240 39.540035
v 49.715229 32.893715 113.829041
v 53.633850 32.893715 112.954575
v 53.633850 53.652538 112.954575
v 49.715229 53.652538 113.829041
v 50.228954 33.939201 113.714386
v 53.120125 33.939201 113.069229
v 53.120125 52.607052 113.069229
v 50.228954 52.607052 113.714386
v 49.820831 33.939201 111.885437
v 52.711990 33.939201 111.240265
v 52.711990 52.607052 111.240265
v 49.820831 52.607052 111.885437
v 49.911015 32.893715 114.706345
v 53.829636 32.893715 113.831886
v 53.315910 33.939201 113.946533
v 50.424751 33.939201 114.591698
v 53.829636 53.652538 113.831886
v 53.315907 52.607052 113.946533
v 49.911015 53.652538 114.706345
v 50.424751 52.607052 114.591698
vt 0.421867 0.361854
vt 0.464822 0.362573
vt 0.421855 0.362537
vt 0.464811 0.363257
vt 0.421136 0.405492
vt 0.464091 0.406212
vt 0.421124 0.406176
vt 0.464080 0.406895
vt 0.420405 0.449131
vt 0.463360 0.449851
vt 0.507778 0.363293
vt 0.507766 0.363976
vt 0.378911 0.361134
vt 0.378900 0.361818
vt 0.421867 0.361854
vt 0.464822 0.362573
vt 0.464811 0.363257
vt 0.421855 0.362537
vt 0.464091 0.406212
vt 0.421136 0.405492
vt 0.464080 0.406895
vt 0.421124 0.406176
vt 0.463360 0.449851
vt 0.420405 0.449131
vt 0.507778 0.363293
vt 0.507766 0.363976
vt 0.378911 0.361134
vt 0.378900 0.361818
vt 0.605744 0.447893
vt 0.605677 0.437966
vt 0.616117 0.437897
vt 0.616182 0.447824
vt 0.605612 0.428039
vt 0.616050 0.427970
vt 0.605546 0.418112
vt 0.615984 0.418043
vt 0.605480 0.408185
vt 0.615919 0.408115
vt 0.605414 0.398258
vt 0.615853 0.398188
vt 0.605348 0.388330
vt 0.615787 0.388261
vt 0.605282 0.378403
vt 0.615721 0.378334
vt 0.605216 0.368476
vt 0.615655 0.368407
vt 0.605744 0.447893
vt 0.605677 0.437966
vt 0.616117 0.437897
vt 0.616182 0.447824
vt 0.605612 0.428039
vt 0.616050 0.427970
vt 0.605546 0.418112
vt 0.615984 0.418043
vt 0.605480 0.408185
vt 0.615919 0.408115
vt 0.605414 0.398258
vt 0.615853 0.398188
vt 0.605348 0.388330
vt 0.615787 0.388261
vt 0.605282 0.378403
vt 0.615721 0.378334
vt 0.605216 0.368476
vt 0.615655 0.368407
vt 0.605744 0.447893
vt 0.605677 0.437966
vt 0.616117 0.437897
vt 0.616182 0.447824
vt 0.605612 0.428039
vt 0.616050 0.427970
vt 0.605546 0.418112
vt 0.615984 0.418043
vt 0.605480 0.408185
vt 0.615919 0.408115
vt 0.605414 0.398258
vt 0.615853 0.398188
vt 0.605348 0.388330
vt 0.615787 0.388261
vt 0.605282 0.378403
vt 0.615721 0.378334
vt 0.605216 0.368476
vt 0.615655 0.368407
vt 0.605744 0.447893
vt 0.605677 0.437966
vt 0.616117 0.437897
vt 0.616182 0.447824
vt 0.605612 0.428039
vt 0.616050 0.427970
vt 0.605546 0.418112
vt 0.615984 0.418043
vt 0.605480 0.408185
vt 0.615919 0.408115
vt 0.605414 0.398258
vt 0.615853 0.398188
vt 0.605348 0.388330
vt 0.615787 0.388261
vt 0.605282 0.378403
vt 0.615721 0.378334
vt 0.605216 0.368476
vt 0.615655 0.368407
vt 0.565397 0.441482
vt 0.565326 0.433215
vt 0.586929 0.433030
vt 0.587000 0.441298
vt 0.565255 0.424948
vt 0.586859 0.424763
vt 0.565185 0.416681
vt 0.586788 0.416496
vt 0.565114 0.408413
vt 0.586717 0.408229
vt 0.565044 0.400146
vt 0.586647 0.399962
vt 0.564973 0.391879
vt 0.586576 0.391695
vt 0.564902 0.383612
vt 0.586505 0.383427
vt 0.564832 0.375345
vt 0.586435 0.375160
vt 0.028898 0.043909
vt 0.303478 0.043567
vt 0.303505 0.065751
vt 0.028926 0.066092
vt 0.008658 0.066117
vt 0.303530 0.086019
vt 0.303902 0.384901
vt 0.029323 0.385243
vt 0.303930 0.407085
vt 0.029350 0.407427
vt 0.029694 0.684125
vt 0.304273 0.683784
vt 0.304645 0.982667
vt 0.030066 0.983008
vt 0.360498 0.639738
vt 0.363221 0.969575
vt 0.339085 0.969973
vt 0.360713 0.022736
vt 0.363326 0.343228
vt 0.336608 0.022686
vt 0.467490 0.460627
vt 0.544382 0.461724
vt 0.543359 0.533467
vt 0.466467 0.532370
vt 0.643329 0.646342
vt 0.636938 0.967090
vt 0.304248 0.663278
vt 0.029669 0.663619
vt 0.633632 0.014896
vt 0.647370 0.344201
vt 0.691381 0.346744
vt 0.687792 0.644066
vt 0.665460 0.645779
vt 0.669120 0.344900
vt 0.689621 0.666122
vt 0.659251 0.967562
vt 0.655613 0.014150
vt 0.713425 0.347218
vt 0.627746 0.462913
vt 0.468679 0.377263
vt 0.542169 0.616831
vt 0.383103 0.531181
vt 0.801089 0.074373
vt 0.799288 0.307820
vt 0.731471 0.307297
vt 0.733272 0.073849
vt 0.680827 0.306906
vt 0.682628 0.073459
vt 0.851733 0.074763
vt 0.849932 0.308211
vt 0.798898 0.358464
vt 0.731080 0.357941
vt 0.801480 0.023729
vt 0.733663 0.023205
vt 0.942652 0.440972
vt 0.722940 0.981007
vt 0.725064 0.744403
vt 0.949981 0.027717
vt 0.725236 0.725157
vt 0.985978 0.727497
vt 0.727359 0.488552
vt 0.988101 0.490892
vt 0.727532 0.469306
vt 0.988274 0.471645
vt 0.703694 0.980835
vt 0.705817 0.744230
vt 0.833156 0.440764
vt 0.817629 0.440371
vt 0.820108 0.342520
vt 0.835635 0.342914
vt 0.976268 0.441567
vt 0.858482 0.374729
vt 0.931477 0.375176
vt 0.860918 0.090362
vt 0.983597 0.028313
vt 0.933930 0.091076
vt 0.921569 0.368596
vt 0.867714 0.367357
vt 0.874967 0.353863
vt 0.847690 0.441133
vt 0.870807 0.096969
vt 0.877733 0.110820
vt 0.924659 0.098401
vt 0.917401 0.111820
vt 0.842979 0.441013
vt 0.817380 0.450194
vt 0.810285 0.342272
vt 0.835883 0.333091
vt 0.983682 0.983347
vt 0.985805 0.746743
vt 0.976206 0.172900
vt 0.974008 0.296809
vt 0.952240 0.172475
vt 0.950043 0.296384
vt 0.836003 0.328379
vt 0.914639 0.354749
vt 0.805573 0.342152
vt 0.817261 0.454905
vt 0.845458 0.343163
vt 0.850169 0.343282
vt 0.820356 0.332698
vt 0.820476 0.327986
vt 0.832907 0.450587
vt 0.832788 0.455299
vt 0.807806 0.440122
vt 0.803095 0.440003
vt 0.634876 0.357197
vt 0.375790 0.355819
vt 0.373092 0.627285
vt 0.631057 0.633142
vt 0.626722 0.534656
vt 0.465278 0.615734
vt 0.545571 0.378360
vt 0.384126 0.459438
vt 0.008630 0.043934
vt 0.303452 0.023299
vt 0.336437 0.641542
vt 0.339194 0.342493
vt 0.028951 0.086360
vt 0.323773 0.065726
vt 0.323745 0.043542
vt 0.028873 0.023641
vt 0.667874 0.667545
vt 0.665585 0.647179
vt 0.669191 0.341641
vt 0.670043 0.323925
vt 0.709829 0.643309
vt 0.692828 0.324845
vn 0.000000 0.000000 1.000000
vn 0.000000 0.000000 1.000000
vn 0.000000 0.000000 1.000000
vn 0.000000 0.000000 1.000000
vn 0.000000 1.000000 0.000000
vn 0.000000 1.000000 0.000000
vn 0.000000 1.000000 0.000000
vn 0.000000 1.000000 0.000000
vn 0.000000 0.000000 -1.000000
vn 0.000000 0.000000 -1.000000
vn 0.000000 0.000000 -1.000000
vn 0.000000 0.000000 -1.000000
vn 0.000000 -1.000000 0.000000
vn 0.000000 -1.000000 0.000000
vn 0.000000 -1.000000 0.000000
vn 0.000000 -1.000000 0.000000
vn 1.000000 0.000000 0.000000
vn 1.000000 0.000000 0.000000
vn 1.000000 0.000000 0.000000
vn 1.000000 0.000000 0.000000
vn -1.000000 0.000000 0.000000
vn -1.000000 0.000000 0.000000
vn -1.000000 0.000000 0.000000
vn -1.000000 0.000000 0.000000
vn 0.000000 0.000000 1.000000
vn 0.000000 0.000000 1.000000
vn 0.000000 0.000000 1.000000
vn 0.000000 0.000000 1.000000
vn 0.000000 1.000000 0.000000
vn 0.000000 1.000000 0.000000
vn 0.000000 1.000000 0.000000
vn 0.000000 1.000000 0.000000
vn 0.000000 0.000000 -1.000000
vn 0.000000 0.000000 -1.000000
vn 0.000000 0.000000 -1.000000
vn 0.000000 0.000000 -1.000000
vn 0.000000 -1.000000 0.000000
vn 0.000000 -1.000000 0.000000
vn 0.000000 -1.000000 0.000000
vn 0.000000 -1.000000 0.000000
vn 1.000000 0.000000 0.000000
vn 1.000000 0.000000 0.000000
vn 1.000000 0.000000 0.000000
vn 1.000000 0.000000 0.000000
vn -1.000000 0.000000 0.000000
vn -1.000000 0.000000 0.000000
vn -1.000000 0.000000 0.000000
vn -1.000000 0.000000 0.000000
vn 0.382684 0.000000 -0.923880
vn 0.382684 0.000000 -0.923880
vn 0.382684 0.000000 -0.923880
vn 0.382684 0.000000 -0.923880
vn -0.382684 0.000000 -0.923880
vn -0.382684 0.000000 -0.923880
vn -0.382684 0.000000 -0.923880
vn -0.382684 0.000000 -0.923880
vn -0.923880 0.000000 -0.382683
vn -0.923880 0.000000 -0.382683
vn -0.923880 0.000000 -0.382683
vn -0.923880 0.000000 -0.382683
vn -0.923880 0.000000 0.382683
vn -0.923880 0.000000 0.382683
vn -0.923880 0.000000 0.382683
vn -0.923880 0.000000 0.382683
vn -0.382681 0.000000 0.923881
vn -0.382681 0.000000 0.923881
vn -0.382681 0.000000 0.923881
vn -0.382681 0.000000 0.923881
vn 0.382681 0.000000 0.923881
vn 0.382681 0.000000 0.923881
vn 0.382681 0.000000 0.923881
vn 0.382681 0.000000 0.923881
vn 0.923880 0.000000 0.382683
vn 0.923880 0.000000 0.382683
vn 0.923880 0.000000 0.382683
vn 0.923880 0.000000 0.382683
vn 0.923880 0.000000 -0.382683
vn 0.923880 0.000000 -0.382683
vn 0.923880 0.000000 -0.382683
vn 0.923880 0.000000 -0.382683
vn 0.382683 0.000000 -0.923880
vn 0.382683 0.000000 -0.923880
vn 0.382683 0.000000 -0.923880
vn 0.382683 0.000000 -0.923880
vn -0.382684 0.000000 -0.923880
vn -0.382684 0.000000 -0.923880
vn -0.382684 0.000000 -0.923880
vn -0.382684 0.000000 -0.923880
vn -0.923880 0.000000 -0.382683
vn -0.923880 0.000000 -0.382683
vn -0.923880 0.000000 -0.382683
vn -0.923880 0.000000 -0.382683
vn -0.923880 0.000000 0.382683
vn -0.923880 0.000000 0.382683
vn -0.923880 0.000000 0.382683
vn -0.923880 0.000000 0.382683
vn -0.382682 0.000000 0.923880
vn -0.382682 0.000000 0.923880
vn -0.382682 0.000000 0.923880
vn -0.382682 0.000000 0.923880
vn 0.382682 0.000000 0.923880
vn 0.382682 0.000000 0.923880
vn 0.382682 0.000000 0.923880
vn 0.382682 0.000000 0.923880
vn 0.923880 0.000000 0.382682
vn 0.923880 0.000000 0.382682
vn 0.923880 0.000000 0.382682
vn 0.923880 0.000000 0.382682
vn 0.923880 0.000000 -0.382683
vn 0.923880 0.000000 -0.382683
vn 0.923880 0.000000 -0.382683
vn 0.923880 0.000000 -0.382683
vn 0.382683 0.000000 -0.923880
vn 0.382683 0.000000 -0.923880
vn 0.382683 0.000000 -0.923880
vn 0.382683 0.000000 -0.923880
vn -0.382684 0.000000 -0.923880
vn -0.382684 0.000000 -0.923880
vn -0.382684 0.000000 -0.923880
vn -0.382684 0.000000 -0.923880
vn -0.923880 0.000000 -0.382683
vn -0.923880 0.000000 -0.382683
vn -0.923880 0.000000 -0.382683
vn -0.923880 0.000000 -0.382683
vn -0.923880 0.000000 0.382683
vn -0.923880 0.000000 0.382683
vn -0.923880 0.000000 0.382683
vn -0.923880 0.000000 0.382683
vn -0.382681 0.000000 0.923881
vn -0.382681 0.000000 0.923881
vn -0.382681 0.000000 0.923881
vn -0.382681 0.000000 0.923881
vn 0.382681 0.000000 0.923881
vn 0.382681 0.000000 0.923881
vn 0.382681 0.000000 0.923881
vn 0.382681 0.000000 0.923881
vn 0.923880 0.000000 0.382682
vn 0.923880 0.000000 0.382682
vn 0.923880 0.000000 0.382682
vn 0.923880 0.000000 0.382682
vn 0.923880 0.000000 -0.382683
vn 0.923880 0.000000 -0.382683
vn 0.923880 0.000000 -0.382683
vn 0.923880 0.000000 -0.382683
vn 0.382684 0.000000 -0.923880
vn 0.382684 0.000000 -0.923880
vn 0.382684 0.000000 -0.923880
vn 0.382684 0.000000 -0.923880
vn -0.382683 0.000000 -0.923880
vn -0.382683 0.000000 -0.923880
vn -0.382683 0.000000 -0.923880
vn -0.382683 0.000000 -0.923880
vn -0.923880 0.000000 -0.382683
vn -0.923880 0.000000 -0.382683
vn -0.923880 0.000000 -0.382683
vn -0.923880 0.000000 -0.382683
vn -0.923880 0.000000 0.382682
vn -0.923880 0.000000 0.382682
vn -0.923880 0.000000 0.382682
vn -0.923880 0.000000 0.382682
vn -0.382682 0.000000 0.923880
vn -0.382682 0.000000 0.923880
vn -0.382682 0.000000 0.923880
vn -0.382682 0.000000 0.923880
vn 0.382682 0.000000 0.923880
vn 0.382682 0.000000 0.923880
vn 0.382682 0.000000 0.923880
vn 0.382682 0.000000 0.923880
vn 0.923880 0.000000 0.382683
vn 0.923880 0.000000 0.382683
vn 0.923880 0.000000 0.382683
vn 0.923880 0.000000 0.382683
vn 0.923880 0.000000 -0.382683
vn 0.923880 0.000000 -0.382683
vn 0.923880 0.000000 -0.382683
vn 0.923880 0.000000 -0.382683
vn 0.382680 0.000000 -0.923881
vn 0.382680 0.000000 -0.923881
vn 0.382680 0.000000 -0.923881
vn 0.382680 0.000000 -0.923881
vn -0.382680 0.000000 -0.923881
vn -0.382680 0.000000 -0.923881
vn -0.382680 0.000000 -0.923881
vn -0.382680 0.000000 -0.923881
vn -0.923881 0.000000 -0.382681
vn -0.923881 0.000000 -0.382681
vn -0.923881 0.000000 -0.382681
vn -0.923881 0.000000 -0.382681
vn -0.923880 0.000000 0.382682
vn -0.923880 0.000000 0.382682
vn -0.923880 0.000000 0.382682
vn -0.923880 0.000000 0.382682
vn -0.382686 0.000000 0.923879
vn -0.382686 0.000000 0.923879
vn -0.382686 0.000000 0.923879
vn -0.382686 0.000000 0.923879
vn 0.382686 0.000000 0.923879
vn 0.382686 0.000000 0.923879
vn 0.382686 0.000000 0.923879
vn 0.382686 0.000000 0.923879
vn 0.923880 0.000000 0.382682
vn 0.923880 0.000000 0.382682
vn 0.923880 0.000000 0.382682
vn 0.923880 0.000000 0.382682
vn 0.923881 0.000000 -0.382681
vn 0.923881 0.000000 -0.382681
vn 0.923881 0.000000 -0.382681
vn 0.923881 0.000000 -0.382681
vn 0.000000 0.000000 1.000000
vn 0.000000 0.000000 1.000000
vn 0.000000 0.000000 1.000000
vn 0.000000 0.000000 1.000000
vn 0.000000 1.000000 0.000000
vn 0.000000 1.000000 0.000000
vn 0.000000 1.000000 0.000000
vn 0.000000 1.000000 0.000000
vn 0.000000 0.000000 -1.000000
vn 0.000000 0.000000 -1.000000
vn 0.000000 0.000000 -1.000000
vn 0.000000 0.000000 -1.000000
vn 0.000000 -1.000000 0.000000
vn 0.000000 -1.000000 0.000000
vn 0.000000 -1.000000 0.000000
vn 0.000000 -1.000000 0.000000
vn 1.000000 0.000000 0.000000
vn 1.000000 0.000000 0.000000
vn 1.000000 0.000000 0.000000
vn 1.000000 0.000000 0.000000
vn -1.000000 0.000000 0.000000
vn -1.000000 0.000000 0.000000
vn -1.000000 0.000000 0.000000
vn -1.000000 0.000000 0.000000
vn 0.000000 0.000000 1.000000
vn 0.000000 0.000000 1.000000
vn 0.000000 0.000000 1.000000
vn 0.000000 0.000000 1.000000
vn 1.000000 0.000000 0.000000
vn 1.000000 0.000000 0.000000
vn 0.000000 0.000000 -1.000000
vn 0.000000 0.000000 -1.000000
vn -1.000000 0.000000 0.000000
vn -1.000000 0.000000 0.000000
vn 0.000000 -1.000000 0.000000
vn 0.000000 -1.000000 0.000000
vn 0.000000 -1.000000 0.000000
vn 0.000000 -1.000000 0.000000
vn 1.000000 0.000000 0.000000
vn 1.000000 0.000000 0.000000
vn 1.000000 0.000000 0.000000
vn 1.000000 0.000000 0.000000
vn 0.000000 1.000000 0.000000
vn 0.000000 1.000000 0.000000
vn 0.000000 1.000000 0.000000
vn 0.000000 1.000000 0.000000
vn -1.000000 0.000000 0.000000
vn -1.000000 0.000000 0.000000
vn -1.000000 0.000000 0.000000
vn -1.000000 0.000000 0.000000
vn 0.000000 0.000000 1.000000
vn 0.000000 0.000000 1.000000
vn 0.000000 0.000000 1.000000
vn 0.000000 0.000000 1.000000
vn 1.000000 0.000000 0.000000
vn 1.000000 0.000000 0.000000
vn 0.000000 0.000000 -1.000000
vn 0.000000 0.000000 -1.000000
vn -1.000000 0.000000 0.000000
vn -1.000000 0.000000 0.000000
vn 0.000000 -1.000000 0.000000
vn 0.000000 -1.000000 0.000000
vn 0.000000 -1.000000 0.000000
vn 0.000000 -1.000000 0.000000
vn 1.000000 0.000000 0.000000
vn 1.000000 0.000000 0.000000
vn 1.000000 0.000000 0.000000
vn 1.000000 0.000000 0.000000
vn 0.000000 1.000000 0.000000
vn 0.000000 1.000000 0.000000
vn 0.000000 1.000000 0.000000
vn 0.000000 1.000000 0.000000
vn -1.000000 0.000000 0.000000
vn -1.000000 0.000000 0.000000
vn -1.000000 0.000000 0.000000
vn -1.000000 0.000000 0.000000
vn 0.000000 0.000000 1.000000
vn 0.000000 0.000000 1.000000
vn 0.000000 0.000000 1.000000
vn 0.000000 0.000000 1.000000
vn 0.000001 0.000000 1.000000
vn 0.000001 0.000000 1.000000
vn 0.000001 0.000000 1.000000
vn 0.000001 0.000000 1.000000
vn 0.000000 0.000000 1.000000
vn 0.000000 0.000000 1.000000
vn 0.000000 0.000000 1.000000
vn 0.000000 0.000000 1.000000
vn -0.000001 0.000000 1.000000
vn -0.000001 0.000000 1.000000
vn -0.000001 0.000000 1.000000
vn -0.000001 0.000000 1.000000
vn 0.000000 1.000000 0.000000
vn 0.000000 1.000000 0.000000
vn 0.000000 1.000000 0.000000
vn 0.000000 1.000000 0.000000
vn -1.000000 0.000000 0.000000
vn -1.000000 0.000000 0.000000
vn -1.000000 0.000000 0.000000
vn -1.000000 0.000000 0.000000
vn 0.000000 -1.000000 0.000000
vn 0.000000 -1.000000 0.000000
vn 0.000000 -1.000000 0.000000
vn 0.000000 -1.000000 0.000000
vn 1.000000 0.000000 0.000000
vn 1.000000 0.000000 0.000000
vn 1.000000 0.000000 0.000000
vn 1.000000 0.000000 0.000000
vn 0.000000 0.000000 1.000000
vn 0.000000 0.000000 1.000000
vn 0.000000 0.000000 1.000000
vn 0.000000 0.000000 1.000000
vn 0.000000 1.000000 0.000000
vn 0.000000 1.000000 0.000000
vn 0.000000 1.000000 0.000000
vn 0.000000 1.000000 0.000000
vn 0.000000 -1.000000 0.000000
vn 0.000000 -1.000000 0.000000
vn 0.000000 -1.000000 0.000000
vn 0.000000 -1.000000 0.000000
vn 1.000000 0.000000 0.000000
vn 1.000000 0.000000 0.000000
vn 1.000000 0.000000 0.000000
vn 1.000000 0.000000 0.000000
vn -1.000000 0.000000 0.000000
vn -1.000000 0.000000 0.000000
vn -1.000000 0.000000 0.000000
vn -1.000000 0.000000 0.000000
vn 0.975994 0.000000 -0.217796
vn 0.975994 0.000000 -0.217796
vn 0.975994 0.000000 -0.217796
vn 0.975994 0.000000 -0.217796
vn 0.000000 1.000000 0.000000
vn 0.000000 1.000000 0.000000
vn 0.000000 1.000000 0.000000
vn 0.000000 1.000000 0.000000
vn -0.975994 0.000000 0.217796
vn -0.975994 0.000000 0.217796
vn -0.975994 0.000000 0.217796
vn -0.975994 0.000000 0.217796
vn 0.000000 -1.000000 -0.000000
vn 0.000000 -1.000000 -0.000000
vn 0.000000 -1.000000 -0.000000
vn 0.000000 -1.000000 -0.000000
vn -0.217797 0.000000 -0.975994
vn -0.217797 0.000000 -0.975994
vn -0.217797 0.000000 -0.975994
vn -0.217797 0.000000 -0.975994
vn 0.217796 0.000000 0.975994
vn 0.217796 0.000000 0.975994
vn 0.217796 0.000000 0.975994
vn 0.217796 0.000000 0.975994
vn 0.217798 -0.000000 0.975994
vn 0.217798 -0.000000 0.975994
vn 0.217798 -0.000000 0.975994
vn 0.217798 -0.000000 0.975994
vn 0.217818 0.000000 0.975989
vn 0.217818 0.000000 0.975989
vn 0.217818 0.000000 0.975989
vn 0.217818 0.000000 0.975989
vn 0.217799 0.000000 0.975994
vn 0.217798 0.000000 0.975994
vn 0.217799 0.000000 0.975994
vn 0.217799 0.000000 0.975994
vn 0.217793 0.000000 0.975995
vn 0.217793 0.000000 0.975995
vn 0.217793 0.000000 0.975995
vn 0.217793 0.000000 0.975995
vn 0.217797 -0.000002 0.975994
vn 0.217797 -0.000002 0.975994
vn 0.217797 -0.000002 0.975994
vn 0.217797 -0.000002 0.975994
vn 0.217807 0.000000 0.975992
vn 0.217807 0.000000 0.975992
vn 0.217807 0.000000 0.975992
vn 0.217807 0.000000 0.975992
vn 0.217796 0.000002 0.975994
vn 0.217796 0.000002 0.975994
vn 0.217796 0.000002 0.975994
vn 0.217796 0.000002 0.975994
vn 0.217801 0.000000 0.975993
vn 0.217801 0.000000 0.975993
vn 0.217801 0.000000 0.975993
vn 0.217801 0.000000 0.975993
vn 0.000000 1.000000 0.000000
vn 0.000000 1.000000 0.000000
vn 0.000000 1.000000 0.000001
vn 0.000000 1.000000 0.000001
vn -0.975994 0.000000 0.217798
vn -0.975994 0.000000 0.217798
vn -0.975995 0.000000 0.217794
vn -0.975995 0.000000 0.217794
vn 0.000000 -1.000000 0.000001
vn 0.000000 -1.000000 0.000001
vn 0.000000 -1.000000 0.000002
vn 0.000000 -1.000000 0.000002
vn 0.975994 0.000000 -0.217800
vn 0.975994 0.000000 -0.217800
vn 0.975996 0.000000 -0.217790
vn 0.975996 0.000000 -0.217790
vn 0.000000 -1.000000 0.000001
vn 0.000000 -1.000000 0.000001
vn 0.000000 -1.000000 0.000001
vn 0.000000 -1.000000 0.000001
vn 0.000000 1.000000 -0.000001
vn 0.000000 1.000000 -0.000001
vn 0.975992 0.000000 -0.217805
vn 0.975992 0.000000 -0.217805
vn 0.975992 0.000000 -0.217805
vn 0.975992 0.000000 -0.217805
vn -0.975992 0.000000 0.217807
vn -0.975992 0.000000 0.217806
vn 0.000000 1.000000 -0.000001
vn 0.000000 1.000000 -0.000001
vn 0.000000 1.000000 -0.000001
vn 0.000000 1.000000 -0.000001
vn 0.000000 -1.000000 -0.000003
vn 0.000000 -1.000000 -0.000003
vn -0.975991 0.000000 0.217811
vn -0.975991 0.000000 0.217811
vn -0.975991 0.000000 0.217811
vn -0.975991 0.000000 0.217811
vn 0.975989 0.000000 -0.217821
vn 0.975989 0.000000 -0.217821
s off
g SM_Med_Fridge
usemtl blinn1SG
f 1/1/1 2/2/2 4/4/3 3/3/4
f 3/3/5 4/4/6 6/6/7 5/5/8
f 5/5/9 6/6/10 8/8/11 7/7/12
f 7/7/13 8/8/14 2/10/15 1/9/16
f 2/2/17 8/11/18 6/12/19 4/4/20
f 7/13/21 1/1/22 3/3/23 5/14/24
f 9/15/25 10/16/26 12/17/27 11/18/28
f 11/18/29 12/17/30 14/19/31 13/20/32
f 13/20/33 14/19/34 16/21/35 15/22/36
f 15/22/37 16/21/38 10/23/39 9/24/40
f 10/16/41 16/25/42 14/26/43 12/17/44
f 15/27/45 9/15/46 11/18/47 13/28/48
f 17/29/49 18/30/50 26/31/51 25/32/52
f 18/30/53 19/33/54 27/34/55 26/31/56
f 19/33/57 20/35/58 28/36/59 27/34/60
f 20/35/61 21/37/62 29/38/63 28/36/64
f 21/37/65 22/39/66 30/40/67 29/38/68
f 22/39/69 23/41/70 31/42/71 30/40/72
f 23/41/73 24/43/74 32/44/75 31/42/76
f 24/43/77 17/45/78 25/46/79 32/44/80
f 33/47/81 34/48/82 42/49/83 41/50/84
f 34/48/85 35/51/86 43/52/87 42/49/88
f 35/51/89 36/53/90 44/54/91 43/52/92
f 36/53/93 37/55/94 45/56/95 44/54/96
f 37/55/97 38/57/98 46/58/99 45/56/100
f 38/57/101 39/59/102 47/60/103 46/58/104
f 39/59/105 40/61/106 48/62/107 47/60/108
f 40/61/109 33/63/110 41/64/111 48/62/112
f 49/65/113 50/66/114 58/67/115 57/68/116
f 50/66/117 51/69/118 59/70/119 58/67/120
f 51/69/121 52/71/122 60/72/123 59/70/124
f 52/71/125 53/73/126 61/74/127 60/72/128
f 53/73/129 54/75/130 62/76/131 61/74/132
f 54/75/133 55/77/134 63/78/135 62/76/136
f 55/77/137 56/79/138 64/80/139 63/78/140
f 56/79/141 49/81/142 57/82/143 64/80/144
f 65/83/145 66/84/146 74/85/147 73/86/148
f 66/84/149 67/87/150 75/88/151 74/85/152
f 67/87/153 68/89/154 76/90/155 75/88/156
f 68/89/157 69/91/158 77/92/159 76/90/160
f 69/91/161 70/93/162 78/94/163 77/92/164
f 70/93/165 71/95/166 79/96/167 78/94/168
f 71/95/169 72/97/170 80/98/171 79/96/172
f 72/97/173 65/99/174 73/100/175 80/98/176
f 81/101/177 82/102/178 90/103/179 89/104/180
f 82/102/181 83/105/182 91/106/183 90/103/184
f 83/105/185 84/107/186 92/108/187 91/106/188
f 84/107/189 85/109/190 93/110/191 92/108/192
f 85/109/193 86/111/194 94/112/195 93/110/196
f 86/111/197 87/113/198 95/114/199 94/112/200
f 87/113/201 88/115/202 96/116/203 95/114/204
f 88/115/205 81/117/206 89/118/207 96/116/208
f 109/119/209 110/120/210 111/121/211 112/122/212
f 99/237/213 100/124/214 102/125/215 101/126/216
s 1
f 101/126/217 102/125/218 107/127/219 108/128/220
s off
f 103/129/221 104/130/222 98/131/223 97/132/224
s 2
f 106/133/225 107/134/226 102/135/227 100/235/228
s 3
f 108/136/229 105/137/230 99/236/231 101/138/232
s off
f 125/139/233 126/140/234 127/141/235 128/142/236
s 2
f 114/143/237 115/144/238 107/134/226 106/133/225
s 1
f 108/128/220 107/127/219 115/145/239 116/146/240
s 3
f 116/147/241 113/148/242 105/137/230 108/136/229
s off
f 105/240/243 106/234/244 110/120/245 109/119/246
f 106/239/247 100/238/248 111/121/249 110/120/250
f 100/124/251 99/237/252 112/122/253 111/121/254
f 99/123/255 105/233/256 109/119/257 112/122/258
f 117/149/259 118/150/260 119/151/261 120/152/262
s 2
f 98/242/263 104/154/264 115/144/238 114/143/237
s 1
f 116/146/240 115/145/239 104/130/265 103/129/266
s 3
f 103/155/267 97/243/268 113/148/242 116/147/241
s off
f 97/156/269 98/245/270 118/150/271 117/149/272
f 98/153/273 114/241/274 119/151/275 118/150/276
f 114/143/277 113/148/278 120/152/279 119/151/280
f 113/244/281 97/246/282 117/149/283 120/152/284
f 113/148/285 114/143/286 122/228/287 121/225/288
f 114/143/289 106/133/290 123/227/291 122/228/292
f 106/133/293 105/137/294 124/226/295 123/227/296
f 105/137/297 113/148/298 121/225/299 124/226/300
f 121/158/301 122/231/302 126/140/303 125/139/304
f 122/157/305 123/229/306 127/141/307 126/140/308
f 123/159/309 124/230/310 128/142/311 127/141/312
f 124/160/313 121/232/314 125/139/315 128/142/316
f 129/161/317 130/162/318 132/163/319 131/164/320
f 131/164/321 132/163/322 134/165/323 133/166/324
f 135/167/325 136/168/326 130/162/327 129/161/328
f 130/162/329 136/169/330 134/170/331 132/163/332
f 135/171/333 129/161/334 131/164/335 133/172/336
f 137/207/337 138/174/338 140/175/339 139/208/340
f 139/208/341 140/175/342 142/177/343 141/178/344
f 141/178/345 142/177/346 144/179/347 143/180/348
f 143/180/349 144/179/350 138/181/351 137/182/352
f 138/174/353 144/183/354 142/184/355 140/175/356
f 153/185/357 154/186/358 155/187/359 156/188/360
f 143/189/361 137/173/362 146/212/363 145/210/364
f 137/173/365 139/176/366 147/211/367 146/212/368
f 139/176/369 141/193/370 148/209/371 147/211/372
f 141/193/373 143/189/374 145/210/375 148/209/376
f 157/195/377 158/196/378 159/197/379 160/214/380
f 158/196/381 161/199/382 162/200/383 159/197/384
f 161/199/385 163/201/386 164/202/387 162/200/388
f 163/201/389 157/195/390 160/214/391 164/202/392
s 4
f 149/221/393 150/204/394 154/186/395 153/185/396
s 5
f 150/223/397 151/205/398 155/187/399 154/186/400
s 6
f 151/219/401 152/206/402 156/188/403 155/187/404
s 7
f 152/217/405 149/203/406 153/185/407 156/188/408
s off
f 145/191/409 146/190/410 158/196/411 157/195/412
s 4
f 150/204/394 149/221/393 160/222/413 159/216/414
s off
f 146/190/415 147/192/416 161/199/417 158/196/418
s 5
f 151/205/398 150/223/397 159/224/419 162/215/420
s off
f 147/192/421 148/194/422 163/201/423 161/199/424
s 6
f 152/206/402 151/219/401 162/220/425 164/213/426
s off
f 148/194/427 145/191/428 157/195/429 163/201/430
s 7
f 149/203/406 152/217/405 164/218/431 160/198/432
